<?xml version="1.0" encoding="UTF-8" standalone="no"?>
<svg
   xmlns:shaper="http://www.shapertools.com/namespaces/shaper"
   xmlns:dc="http://purl.org/dc/elements/1.1/"
   xmlns:cc="http://creativecommons.org/ns#"
   xmlns:rdf="http://www.w3.org/1999/02/22-rdf-syntax-ns#"
   xmlns:svg="http://www.w3.org/2000/svg"
   xmlns="http://www.w3.org/2000/svg"
   xmlns:sodipodi="http://sodipodi.sourceforge.net/DTD/sodipodi-0.dtd"
   xmlns:inkscape="http://www.inkscape.org/namespaces/inkscape"
   width="23.129062131673678mm"
   height="20.03035537173801mm"
   viewBox="-11.564531065836837 -10.015177685869006 23.129062131673678 20.03035537173801"
   version="1.1"
   id="svg901"
   sodipodi:docname="alternative.svg"
   inkscape:version="1.0.2 (e86c870879, 2021-01-15)">
  <metadata
     id="metadata907">
    <rdf:RDF>
      <cc:Work
         rdf:about="">
        <dc:format>image/svg+xml</dc:format>
        <dc:type
           rdf:resource="http://purl.org/dc/dcmitype/StillImage" />
        <dc:title></dc:title>
      </cc:Work>
    </rdf:RDF>
  </metadata>
  <defs
     id="defs905" />
  <sodipodi:namedview
     pagecolor="#ffffff"
     bordercolor="#666666"
     borderopacity="1"
     objecttolerance="10"
     gridtolerance="10"
     guidetolerance="10"
     inkscape:pageopacity="0"
     inkscape:pageshadow="2"
     inkscape:window-width="1581"
     inkscape:window-height="1132"
     id="namedview903"
     showgrid="false"
     inkscape:zoom="9.4149791"
     inkscape:cx="43.583066"
     inkscape:cy="35.986083"
     inkscape:window-x="1686"
     inkscape:window-y="179"
     inkscape:window-maximized="0"
     inkscape:current-layer="svg901" />
  <g
     id="sg-18416c12-028e-4a35-85b0-f53cd6fc0310"
     transform="matrix(1 0 0 1 1.7763568394002505e-15 8.881784197001252e-16)">
    <path
       id="basePath-sg-18416c12-028e-4a35-85b0-f53cd6fc0310-pg-2c037f11-966d-461f-9b4d-6bde78dc72f2"
       stroke-width="0.1"
       fill="#000000"
       transform="matrix(1.051462224238216 0 0 1.051462224238216 0 0)"
       shaper:cutType="outside"
       d="M 10.9985226280624 9.524999999999999 L -10.9985226280624 9.524999999999999 0 -9.524999999999999 Z " />
  </g>
  <path
     style="opacity:0.621;fill:#ffefab;stroke:#000200;stroke-width:0.0531069;stroke-opacity:0.838881;paint-order:markers fill stroke;fill-opacity:0.98431373"
     d="m 0.19475943,75.541004 c 0,-0.03454 9.78152117,-17.005221 21.73671457,-37.712625 C 39.339762,7.6757508 43.693909,0.20633514 43.797362,0.31807257 43.868407,0.39480859 53.593388,17.210152 65.408429,37.685503 77.223471,58.160854 86.984152,75.068751 87.098831,75.258608 l 0.208508,0.345195 h -43.55629 c -23.955959,0 -43.55628957,-0.02826 -43.55628957,-0.0628 z"
     id="path1470"
     transform="matrix(0.26458332,0,0,0.26458332,-11.564531,-10.015178)" />
  <path
     style="opacity:0.621;fill:#ffefab;fill-opacity:0.984314;stroke:#000200;stroke-width:1.25300001;stroke-opacity:0.838881;paint-order:markers fill stroke;stroke-miterlimit:4;stroke-dasharray:none"
     d="M 0.49220302,75.152394 C 0.60690846,74.962537 1.8127432,72.871455 3.1718356,70.505544 6.3686731,64.940483 19.867045,41.54222 27.681557,28.020054 38.414356,9.4481133 42.365956,2.6635545 43.310606,1.1863235 L 43.795493,0.42806234 46.232392,4.6382696 C 57.501714,24.108172 86.979253,75.182112 87.043109,75.348517 c 0.04904,0.127804 -6.135961,0.149072 -43.351128,0.149072 H 0.28364768 Z"
     id="path1472"
     transform="matrix(0.26458332,0,0,0.26458332,-11.564531,-10.015178)" />
  <path
     style="opacity:0.621;fill:#ffefab;fill-opacity:0.984314;stroke:#000200;stroke-width:0.133086;stroke-miterlimit:4;stroke-dasharray:none;stroke-opacity:0.838881;paint-order:markers fill stroke"
     d="M 1.5877007,74.621326 C 1.9018412,74.024797 25.59517,32.956229 33.888132,18.633734 41.212475,5.9841073 43.585886,1.9350938 43.727776,1.8474011 c 0.08165,-0.050464 9.486176,16.1731569 31.857281,54.9565719 5.105019,8.850259 9.516355,16.497647 9.802969,16.994196 l 0.521117,0.902817 -5.708942,0.06482 c -3.139918,0.03565 -22.140558,0.0715 -42.223646,0.07966 l -36.5147049,0.01484 z"
     id="path1474"
     transform="matrix(0.26458332,0,0,0.26458332,-11.564531,-10.015178)" />
  <path
     style="opacity:0.621;fill:#ffefab;fill-opacity:0.984314;stroke:#000200;stroke-width:0.133086;stroke-miterlimit:4;stroke-dasharray:none;stroke-opacity:0.838881;paint-order:markers fill stroke"
     d="m 1.6817516,74.725937 c 0,-0.03244 0.423275,-0.792161 0.9406112,-1.688277 C 3.139699,72.141545 5.4892097,68.062628 7.8434978,63.9734 13.389261,54.340809 32.512831,21.225437 36.763722,13.893629 41.31905,6.0367383 43.603562,2.1677518 43.707407,2.1339975 c 0.04845,-0.015748 0.16372,0.1024789 0.256161,0.2627256 0.09244,0.1602468 1.340576,2.2987971 2.773632,4.7523341 8.549803,14.6381158 38.983035,67.4045848 38.915035,67.4725858 -0.07529,0.07529 -83.9704834,0.179492 -83.9704834,0.104294 z"
     id="path1476"
     transform="matrix(0.26458332,0,0,0.26458332,-11.564531,-10.015178)" />
  <path
     style="opacity:0.621;fill:#ffefab;fill-opacity:0.984314;stroke:#000000;stroke-width:0.133086;stroke-miterlimit:4;stroke-dasharray:none;stroke-opacity:0.8392157;paint-order:markers fill stroke"
     d="M 1.8367193,74.647879 C 2.1660991,74.033586 18.477122,45.751142 29.646704,26.426848 40.336686,7.9323015 43.621385,2.3141045 43.741963,2.3181118 c 0.06124,0.00204 0.02869,-0.053414 5.891693,10.0354182 7.947518,13.675778 28.881915,49.957669 34.503216,59.798327 l 1.3348,2.336702 -18.820029,0.07687 c -24.328818,0.09937 -64.8516339,0.150916 -64.8149237,0.08245 z"
     id="path1478"
     transform="matrix(0.26458332,0,0,0.26458332,-11.564531,-10.015178)" />
</svg>
